<?xml version="1.0" standalone="no"?><!DOCTYPE svg PUBLIC "-//W3C//DTD SVG 1.1//EN" "http://www.w3.org/Graphics/SVG/1.1/DTD/svg11.dtd"><svg t="1691741598406" class="icon" viewBox="0 0 1024 1024" version="1.1" xmlns="http://www.w3.org/2000/svg" p-id="8205" xmlns:xlink="http://www.w3.org/1999/xlink" width="200" height="200"><path d="M839.253333 235.648c0-71.381333-45.909333-131.541333-106.88-146.645333A124.373333 124.373333 0 0 0 702.421333 85.333333H321.578667c-10.069333 0-20.096 1.237333-29.952 3.669334C230.656 104.106667 184.746667 164.266667 184.746667 235.648v283.477333c5.674667 2.773333 10.794667 6.656 15.189333 11.434667 5.674667 6.186667 9.941333 13.738667 12.458667 22.101333H213.333333c14.08 0 26.88 6.272 36.138667 16.426667 1.536 1.706667 2.986667 3.498667 4.309333 5.376h78.506667c4.352 0 7.893333 3.84 7.893333 8.661333v72.96c0 4.736-3.541333 8.618667-7.893333 8.618667H264.149333a62.293333 62.293333 0 0 1-2.645333 21.205333 1.706667 1.706667 0 0 0 0.426667 1.792c3.712 3.328 6.954667 7.168 9.685333 11.52a59.733333 59.733333 0 0 1 9.088 31.872c0 15.488-5.717333 29.525333-14.976 39.68a48.810667 48.810667 0 0 1-36.181333 16.469334 4.309333 4.309333 0 0 0-4.181334 3.541333l-0.341333 1.706667c-0.853333 4.053333 1.962667 7.978667 5.76 7.978666h560.469333c4.821333 0 8.362667-4.949333 7.253334-10.069333a8.533333 8.533333 0 0 0-7.125334-6.784 49.408 49.408 0 0 1-29.44-15.957333 58.88 58.88 0 0 1-14.933333-39.68c0-5.12 0.64-10.154667 1.877333-15.061334l0.085334-0.426666 0.341333-1.194667a11.349333 11.349333 0 0 0-0.341333-7.125333 58.666667 58.666667 0 0 1-3.968-21.674667c0-2.048 0.128-4.053333 0.298666-6.058667 0.597333-5.888-3.2-11.733333-8.618666-11.733333h-33.109334c-10.88 0-19.712-9.685333-19.712-21.632v-46.976c0-11.946667 8.832-21.632 19.712-21.632h55.381334c8.32-8.32 19.114667-13.653333 31.061333-14.506667 3.498667-7.04 8.32-13.141333 14.165333-17.92a47.957333 47.957333 0 0 1 35.072-11.093333V235.690667z m-78.08 318.72h-57.6c-10.88 0-19.712-9.728-19.712-21.674667v-46.933333c0-11.946667 8.832-21.674667 19.712-21.674667h57.6c10.88 0 19.712 9.685333 19.712 21.632v46.976c0 11.946667-8.832 21.632-19.712 21.632z m0-122.88h-57.6c-10.88 0-19.712-9.642667-19.712-21.589333V362.922667c0-11.946667 8.832-21.632 19.712-21.632h57.6c10.88 0 19.712 9.685333 19.712 21.632v46.933333c0 11.946667-8.832 21.674667-19.712 21.674667z m-139.690666 346.368H402.517333c-10.88 0-19.712-9.685333-19.712-21.632v-160.128c0-11.946667 8.832-21.632 19.712-21.632h218.965334c10.88 0 19.712 9.685333 19.712 21.632v160.128c0 11.946667-8.832 21.632-19.712 21.632z m-7.253334-223.530667h-57.6c-10.837333 0-19.626667-9.685333-19.626666-21.632v-46.933333c0-11.946667 8.789333-21.674667 19.626666-21.674667h57.6c10.922667 0 19.712 9.685333 19.712 21.632v46.976c0 11.946667-8.789333 21.632-19.669333 21.632z m0-122.794666h-57.6c-10.837333 0-19.626667-9.685333-19.626666-21.632V362.922667c0-11.946667 8.789333-21.632 19.626666-21.632h57.6c10.922667 0 19.712 9.685333 19.712 21.632v46.933333c0 11.946667-8.789333 21.674667-19.669333 21.674667z m-146.858666 122.794666h-57.6c-10.88 0-19.712-9.685333-19.712-21.632v-46.933333c0-11.946667 8.832-21.674667 19.669333-21.674667h57.6c10.922667 0 19.712 9.685333 19.712 21.632v46.976c0 11.946667-8.789333 21.632-19.669333 21.632z m0-122.794666h-57.6c-10.88 0-19.712-9.685333-19.712-21.632V362.922667c0-11.946667 8.832-21.632 19.669333-21.632h57.6c10.922667 0 19.712 9.685333 19.712 21.632v46.933333c0 11.946667-8.789333 21.674667-19.669333 21.674667zM320.426667 554.325333H262.826667c-10.88 0-19.669333-9.685333-19.669334-21.632v-46.933333c0-11.946667 8.789333-21.674667 19.669334-21.674667h57.6c10.88 0 19.712 9.685333 19.712 21.632v46.976c0 11.946667-8.832 21.632-19.712 21.632z m0-122.794666H262.826667c-10.88 0-19.669333-9.685333-19.669334-21.632V362.922667c0-11.946667 8.789333-21.632 19.669334-21.632h57.6c10.88 0 19.712 9.685333 19.712 21.632v46.933333c0 11.946667-8.832 21.674667-19.712 21.674667z m161.28-278.442667l22.869333 0.085333 7.04-23.978666 7.04 23.978666 22.912-0.085333-18.56 14.762667 7.125333 23.936-18.517333-14.848-18.517333 14.848 7.125333-23.893334-18.56-14.805333z m66.56 5.418667l19.712 0.042666 6.058666-20.608 6.058667 20.608h19.712l-15.957333 12.672 6.101333 20.565334-15.914667-12.757334-15.914666 12.8 6.101333-20.608-15.957333-12.714666z m58.453333 4.394666l17.066667 0.042667 5.290666-17.877333 5.248 17.92 17.066667-0.085334-13.824 11.050667 5.290667 17.834667-13.781334-11.093334-13.824 11.093334 5.290667-17.834667-13.824-11.050667z m-163.584-4.352l6.058667-20.608 6.058666 20.608h19.712l-15.957333 12.672 6.144 20.565334-15.957333-12.757334-15.914667 12.8 6.144-20.608-16-12.714666 19.712 0.042666z m-54.186667 4.394667l5.248-17.877333 5.248 17.92 17.066667-0.085334-13.824 11.050667 5.333333 17.834667-13.824-11.093334-13.824 11.093334 5.290667-17.834667-13.824-11.050667 17.066667 0.042667z" p-id="8206"></path><path d="M266.794667 731.093333c0-17.536-10.026667-32.512-24.106667-38.314666 4.949333-7.125333 7.68-15.872 7.68-24.874667 0-11.562667-4.394667-22.016-11.434667-29.44 7.168-7.466667 11.605333-18.005333 11.605334-29.696 0-22.613333-16.682667-40.917333-37.248-40.917333a34.176 34.176 0 0 0-12.074667 2.218666c-0.170667-22.442667-16.768-40.576-37.248-40.576-20.565333 0-37.248 18.346667-37.248 40.917334 0 6.314667 1.28 12.544 3.84 18.218666-20.053333 0.64-36.096 18.688-36.096 40.874667 0 18.901333 11.648 34.773333 27.434667 39.509333a43.136 43.136 0 0 0-8.533334 35.072 43.52 43.52 0 0 0-6.997333 23.893334c0 22.570667 16.64 40.874667 37.248 40.874666 10.666667 0 20.309333-4.949333 27.136-12.885333a34.176 34.176 0 0 0 27.946667-1.962667 36.437333 36.437333 0 0 0 30.848 18.005334c20.608 0 37.248-18.346667 37.248-40.96zM825.216 755.968a35.669333 35.669333 0 0 1-27.136 12.885333c-20.565333 0-37.205333-18.304-37.205333-40.917333 0-7.68 1.92-14.933333 5.333333-21.12a43.477333 43.477333 0 0 1-7.338667-24.32c0-13.056 5.589333-24.704 14.250667-32.170667a42.026667 42.026667 0 0 1-16.981333-34.346666c0-22.613333 16.682667-40.96 37.248-40.96 1.92 0 3.84 0.213333 5.632 0.512 4.48-17.066667 18.816-29.525333 35.797333-29.525334 19.242667 0 35.114667 16.085333 37.034667 36.693334 16.128 4.48 28.032 20.522667 28.032 39.68 0 6.485333-1.408 12.928-4.138667 18.773333 5.888 7.381333 9.088 16.896 9.088 26.752a42.666667 42.666667 0 0 1-12.416 30.506667c11.690667 6.912 19.626667 20.48 19.626667 36.053333 0 22.613333-16.64 40.96-37.248 40.96a36.437333 36.437333 0 0 1-30.890667-18.090667 34.048 34.048 0 0 1-18.688-1.365333zM869.205333 796.373333c-0.512 2.389333-2.432 4.096-4.693333 4.096h-48.128c-3.669333 0-6.826667-2.816-7.68-6.741333l-0.298667-1.493333a9.941333 9.941333 0 0 1 6.186667-11.178667 49.578667 49.578667 0 0 0 11.733333-6.357333 8.704 8.704 0 0 1 6.058667-1.621334c1.578667 0.128 3.072 0.213333 4.565333 0.213334a2.133333 2.133333 0 0 1 1.578667 0.725333c3.626667 4.010667 7.765333 7.424 12.288 10.069333 4.48 2.56 9.216 4.437333 14.165333 5.504a5.717333 5.717333 0 0 1 4.266667 6.784zM207.616 800.426667c3.669333 0 6.826667-2.773333 7.68-6.656a9.941333 9.941333 0 0 0-5.546667-10.922667 50.304 50.304 0 0 1-15.061333-10.752 0.810667 0.810667 0 0 0-0.810667-0.256 46.805333 46.805333 0 0 1-16 1.194667 8.704 8.704 0 0 0-6.058666 1.706666 50.389333 50.389333 0 0 1-11.690667 6.314667 9.941333 9.941333 0 0 0-6.229333 11.178667l0.341333 1.493333c0.853333 3.925333 4.010667 6.741333 7.68 6.741333h45.696zM85.333333 853.333333a42.666667 42.666667 0 1 0 0 85.333334h853.333334a42.666667 42.666667 0 1 0 0-85.333334H85.333333z" p-id="8207"></path></svg>